<?xml version="1.0" encoding="iso-8859-1"?>
<!-- Generator: Adobe Illustrator 18.0.0, SVG Export Plug-In . SVG Version: 6.00 Build 0)  -->
<!DOCTYPE svg PUBLIC "-//W3C//DTD SVG 1.1//EN" "http://www.w3.org/Graphics/SVG/1.1/DTD/svg11.dtd">
<svg xmlns="http://www.w3.org/2000/svg" xmlns:xlink="http://www.w3.org/1999/xlink" version="1.1" id="Capa_1" x="0px" y="0px" viewBox="0 0 483.041 483.041" style="enable-background:new 0 0 483.041 483.041;" xml:space="preserve" width="512px" height="512px">
<g>
	<path d="M241.52,121.057c33.375,0,60.527-27.153,60.527-60.528S274.896,0,241.52,0s-60.527,27.153-60.527,60.528   S208.145,121.057,241.52,121.057z M241.52,8.5c28.688,0,52.027,23.34,52.027,52.028s-23.34,52.028-52.027,52.028   s-52.027-23.34-52.027-52.028S212.833,8.5,241.52,8.5z" fill="#FFFFFF"/>
	<path d="M292.185,362.304c-2.327-0.191-4.391,1.549-4.582,3.889l-1.809,22.069c-0.192,2.339,1.549,4.391,3.889,4.583   c0.118,0.01,0.234,0.014,0.352,0.014c2.19,0,4.049-1.682,4.23-3.903l1.809-22.069C296.267,364.548,294.525,362.496,292.185,362.304   z" fill="#FFFFFF"/>
	<path d="M369.108,203.909h-29.096c-4.135-22.398-15.887-42.858-33.29-57.789c-18.12-15.546-41.267-24.108-65.175-24.108   c-23.907,0-47.054,8.562-65.175,24.108c-17.402,14.93-29.156,35.391-33.29,57.789h-29.15c-6.904,0-12.521,5.618-12.521,12.523   v40.922c0,6.905,5.617,12.522,12.521,12.522h42.658l17.136,209.261c0.18,2.206,2.022,3.903,4.235,3.903h127.117   c2.213,0,4.056-1.698,4.235-3.903l17.136-209.261h42.658c6.904,0,12.522-5.617,12.522-12.521v-40.924   C381.63,209.528,376.014,203.911,369.108,203.909z M158.843,182.51h37.762c2.348,0,4.25-1.903,4.25-4.25   c0-2.347-1.902-4.25-4.25-4.25h-33.15c16.214-26.417,45.268-43.497,78.094-43.497c43.993,0,81.226,30.666,89.82,73.396   l-85.598,0.001v-19.025c10.385-1.994,18.256-11.141,18.256-22.097c0-12.41-10.096-22.506-22.506-22.506   c-12.41,0-22.506,10.096-22.506,22.506c0,10.956,7.872,20.104,18.256,22.097v19.025l-85.543,0   C153.245,196.364,155.659,189.2,158.843,182.51z M241.52,176.793c-7.723,0-14.006-6.283-14.006-14.005   c0-7.723,6.283-14.006,14.006-14.006c7.723,0,14.006,6.283,14.006,14.006C255.526,170.51,249.243,176.793,241.52,176.793z    M163.758,253.255h19.817l18.121,221.286h-19.818L163.758,253.255z M301.163,474.541h-14.148l5.757-70.306   c0.192-2.339-1.549-4.391-3.889-4.582c-2.34-0.193-4.391,1.55-4.582,3.889l-5.814,70.999h-68.264l-18.121-221.286h127.181   L301.163,474.541z M373.13,257.355c0,2.217-1.804,4.021-4.022,4.021h-41.963l0.985-12.025c0.098-1.183-0.306-2.354-1.11-3.227   c-0.805-0.874-1.938-1.37-3.125-1.37h-164.75c-1.188,0-2.32,0.497-3.125,1.37c-0.805,0.873-1.208,2.043-1.11,3.227l0.984,12.025   h-41.962c-2.218,0-4.021-1.805-4.021-4.022v-25.677h171.447c2.348,0,4.25-1.903,4.25-4.25c0-2.347-1.902-4.25-4.25-4.25H109.911   v-6.745c0-2.218,1.804-4.023,4.021-4.023l255.175-0.001c2.218,0.001,4.023,1.805,4.023,4.022V257.355z" fill="#FFFFFF"/>
</g>
<g>
</g>
<g>
</g>
<g>
</g>
<g>
</g>
<g>
</g>
<g>
</g>
<g>
</g>
<g>
</g>
<g>
</g>
<g>
</g>
<g>
</g>
<g>
</g>
<g>
</g>
<g>
</g>
<g>
</g>
</svg>
