<?xml version="1.0" encoding="iso-8859-1"?>
<!-- Generator: Adobe Illustrator 18.0.0, SVG Export Plug-In . SVG Version: 6.00 Build 0)  -->
<!DOCTYPE svg PUBLIC "-//W3C//DTD SVG 1.1//EN" "http://www.w3.org/Graphics/SVG/1.1/DTD/svg11.dtd">
<svg xmlns="http://www.w3.org/2000/svg" xmlns:xlink="http://www.w3.org/1999/xlink" version="1.1" id="Capa_1" x="0px" y="0px" viewBox="0 0 491.633 491.633" style="enable-background:new 0 0 491.633 491.633;" xml:space="preserve" width="512px" height="512px">
<g>
	<path d="M360.102,110.017c3.957,13.158,12.801,23.986,24.902,30.491c7.594,4.083,15.9,6.156,24.286,6.156   c4.977,0,9.982-0.73,14.882-2.204c7.667-2.306,14.724-6.416,20.507-11.886c9.144-1.99,21.168-6.969,37.703-18.926   c1.476-1.067,2.108-2.957,1.571-4.697c-0.879-2.85-22.058-69.82-67.992-72.891c-1.779-0.119-3.401-0.178-4.958-0.178   c-10.649,0-19.861,2.822-28.137,8.602c-4.226,0.859-18.912,4.528-23.319,14.679c-2.213,5.099-1.477,10.699,2.174,16.656   C357.296,86.676,356.708,98.738,360.102,110.017z M421.724,136.32c-10.98,3.304-22.593,2.133-32.695-3.298   c-10.102-5.431-17.484-14.47-20.787-25.453c-2.392-7.952-2.41-16.367-0.136-24.25c7.901,6.821,18.303,9.226,27.729,11.385   c9.469,2.168,18.421,4.233,23.43,10.268c0.848,7.052-0.102,14.383-3.797,21.712c-0.641,1.271-0.603,2.779,0.102,4.017   c0.704,1.237,1.981,2.04,3.401,2.138c1.422,0.098,2.845,0.235,4.291,0.375c1.678,0.162,3.394,0.322,5.178,0.439   C426.281,134.72,424.039,135.623,421.724,136.32z M411.002,44.383c1.366,0,2.803,0.052,4.391,0.158   c35.156,2.351,54.966,51.507,59.454,64.037c-21.006,14.695-32.919,16.735-41.821,16.735h-0.002c-2.625,0-5.129-0.201-7.558-0.43   c5.974-16.839,1.738-35.459-12.433-54.238c-7.439-9.856-15.875-17.494-21.079-21.78C397.664,45.856,403.944,44.383,411.002,44.383z    M367.339,62.557c2.26-5.223,11.399-8.367,16.202-9.514c5.333,4.115,23.979,19.48,32.141,38.848   c-5.513-2.625-11.79-4.063-17.95-5.474c-11.445-2.621-22.255-5.097-28.361-14.393C365.676,66.4,366.928,63.507,367.339,62.557z" fill="#FFFFFF"/>
	<path d="M8.483,142.914c6.487,0.718,12.532,1.081,17.966,1.081c10.316,0,18.049-1.273,24.217-3.209   c3.992,0.98,8.095,1.495,12.21,1.495c3.838,0,7.681-0.427,11.44-1.281c27.654-6.294,45.033-33.912,38.74-61.568   c-2.614-11.486-9.075-21.688-18.279-28.947c0.237-6.984-1.884-12.219-6.326-15.563c-8.856-6.666-23.479-2.586-27.549-1.256   c-1.532-0.143-3.064-0.233-4.567-0.233c-12.867,0-22.344,5.265-28.352,9.225C-10.457,67.989,4.159,136.691,4.8,139.604   C5.191,141.382,6.673,142.714,8.483,142.914z M104.77,81.319c5.253,23.085-9.254,46.14-32.338,51.393   c-2.352,0.535-4.743,0.854-7.141,0.989c1.487-0.979,2.895-1.968,4.274-2.936c1.188-0.834,2.357-1.655,3.544-2.441   c1.188-0.786,1.902-2.113,1.904-3.537c0.002-1.424-0.709-2.754-1.893-3.543c-6.831-4.552-11.273-10.461-14.014-17.014   c1.379-7.721,8.148-13.933,15.315-20.49c7.134-6.527,14.995-13.751,18.503-23.582C98.79,65.891,102.927,73.22,104.77,81.319z    M64.564,41.432c4.729-1.377,14.205-3.159,18.777,0.282c0.828,0.623,3.349,2.521,2.91,9.242   c-0.725,11.099-8.907,18.585-17.569,26.512c-4.662,4.266-9.413,8.613-12.913,13.616C53.314,70.203,61.959,47.633,64.564,41.432z    M32.662,49.755c5.321-3.507,12.645-7.513,22.522-7.806c-2.411,6.295-5.984,17.102-7.592,29.349   c-3.063,23.325,2.439,41.611,15.942,53.313c-7.854,5.483-16.504,10.885-37.085,10.885c-4.25,0-8.918-0.238-13.913-0.71   C10.259,121.673,3.241,69.142,32.662,49.755z" fill="#FFFFFF"/>
	<path d="M318.986,276.64c7.858,0,14.25-6.392,14.25-14.25v-6c0-7.857-6.392-14.25-14.25-14.25h-146   c-7.857,0-14.25,6.393-14.25,14.25v6c0,7.858,6.393,14.25,14.25,14.25h56.75v169.533c0,7.858,6.393,14.25,14.25,14.25h4   c7.857,0,14.25-6.392,14.25-14.25V276.64H318.986z M167.236,262.39v-6c0-3.171,2.58-5.75,5.75-5.75h146   c3.17,0,5.75,2.579,5.75,5.75v6c0,3.171-2.58,5.75-5.75,5.75h-146C169.815,268.14,167.236,265.561,167.236,262.39z    M253.736,446.173c0,3.171-2.58,5.75-5.75,5.75h-4c-3.17,0-5.75-2.579-5.75-5.75V276.64h15.5V446.173z" fill="#FFFFFF"/>
	<path d="M484.414,335.48c11.994-15.635,5.601-42.348,4.83-45.352l-15.357-99.589c-0.01-0.069-0.022-0.138-0.037-0.205   c-4.713-23.013-22.869-39.716-43.17-39.716c-19.149,0-36.168,14.438-42.124,35.403l-50.614,15.407   c-12.348,3.759-19.336,16.862-15.577,29.211c3.022,9.927,12.019,16.597,22.387,16.598h0c2.305,0,4.601-0.344,6.824-1.021   l26.484-8.063l-5.185,26.268c-0.105,0.44-0.209,0.898-0.316,1.369c-1.429,6.299-2.778,12.248-14.438,12.515   c-29.996,0.686-59.281,6.182-59.281,63.871c0,2.348,1.903,4.25,4.25,4.25h11.956v64.28c0,14.665,11.931,26.596,26.597,26.596   c14.666,0,26.597-11.931,26.597-26.596v-64.28h7.147c-1.33,2.166-2.111,4.703-2.111,7.426v89.664c0,7.857,6.393,14.25,14.25,14.25   h81.468c7.857,0,14.25-6.393,14.25-14.25v-89.664c0-4.884-2.472-9.199-6.228-11.768   C479.873,340.381,482.344,338.178,484.414,335.48z M349.101,238.086c-1.42,0.432-2.883,0.651-4.349,0.651h0   c-6.601-0.001-12.33-4.25-14.255-10.573c-2.394-7.864,2.057-16.21,9.921-18.604l84.312-25.665c1.42-0.433,2.883-0.651,4.35-0.651   c6.601,0,12.33,4.249,14.255,10.572c2.393,7.864-2.057,16.21-9.921,18.605L349.101,238.086z M359.741,410.708   c0,6.021-2.968,11.35-7.505,14.642v-42.163c0-2.348-1.903-4.25-4.25-4.25c-2.347,0-4.25,1.902-4.25,4.25v45   c0,0.164,0.03,0.319,0.048,0.479c-0.703,0.084-1.415,0.139-2.14,0.139c-9.978,0-18.097-8.118-18.097-18.096v-64.28h36.193V410.708z    M468.995,449.268h-81.468c-3.17,0-5.75-2.579-5.75-5.75v-2.277c0.386,0.115,0.786,0.196,1.209,0.196h54   c2.347,0,4.25-1.902,4.25-4.25c0-2.348-1.903-4.25-4.25-4.25h-54c-0.423,0-0.823,0.081-1.209,0.196v-79.279   c0-3.171,2.58-5.75,5.75-5.75h81.468c3.17,0,5.75,2.579,5.75,5.75v22.083h-77.759c-2.347,0-4.25,1.902-4.25,4.25   c0,2.348,1.903,4.25,4.25,4.25h77.759v59.081C474.745,446.689,472.165,449.268,468.995,449.268z M459.259,337.928H307.398   c0.565-20.521,5.326-34.217,14.506-41.796c9.298-7.679,22.996-9.021,36.412-9.327c18.288-0.418,21.049-12.592,22.533-19.133   c0.105-0.464,0.207-0.913,0.311-1.343c0.014-0.058,0.027-0.116,0.038-0.174l6.08-30.806l48.611-14.798   c12.347-3.76,19.335-16.864,15.577-29.212c-3.023-9.927-12.02-16.597-22.387-16.597c-2.306,0-4.603,0.343-6.826,1.021   l-23.638,7.195c6.002-14.346,18.389-23.841,32.064-23.841c16.254,0,30.885,13.798,34.823,32.821l14.804,95.997h-81.32   c-2.347,0-4.25,1.902-4.25,4.25c0,2.348,1.903,4.25,4.25,4.25h82.933c1.621,9.006,2.659,24.864-4.249,33.87   C473.735,335.435,467.713,337.928,459.259,337.928z" fill="#FFFFFF"/>
	<path d="M133.511,278.307c-11.66-0.267-13.009-6.216-14.438-12.515c-0.019-0.083-0.037-0.159-0.056-0.241l32.831-17.664   c5.734-3.072,9.934-8.179,11.824-14.377c1.894-6.212,1.245-12.789-1.827-18.521c-4.266-7.959-12.527-12.902-21.561-12.902   c-3.972,0-7.927,0.995-11.446,2.881l-19.721,10.61l-4.981-25.235c-4.668-23.018-22.829-39.724-43.183-39.724   c-20.301,0-38.457,16.703-43.17,39.716c-0.014,0.067-0.026,0.136-0.037,0.205L2.389,290.128c-0.771,3.004-7.164,29.717,4.83,45.352   c2.07,2.698,4.541,4.901,7.396,6.606c-3.756,2.568-6.228,6.884-6.228,11.768v89.664c0,7.857,6.393,14.25,14.25,14.25h81.468   c7.857,0,14.25-6.393,14.25-14.25v-89.664c0-2.723-0.781-5.26-2.111-7.426h7.147v64.28c0,14.665,11.931,26.596,26.597,26.596   c14.665,0,26.597-11.931,26.597-26.596v-64.28h11.956c2.347,0,4.25-1.902,4.25-4.25   C192.792,284.489,163.506,278.992,133.511,278.307z M132.858,212.455c2.315-1.24,4.813-1.869,7.425-1.869   c5.895,0,11.286,3.226,14.069,8.418c1.996,3.724,2.418,7.995,1.188,12.027c-1.23,4.034-3.967,7.359-7.714,9.366l-48.362,26.02   c-0.022,0.012-0.045,0.023-0.067,0.035c-0.032,0.017-0.089,0.048-0.138,0.075c-2.312,1.231-4.796,1.854-7.387,1.854   c-5.839,0-11.19-3.216-13.968-8.398l-31.14-57.881c-1.996-3.724-2.412-8.013-1.172-12.077c1.24-4.066,3.982-7.408,7.722-9.412   c2.323-1.245,4.821-1.877,7.426-1.877c5.839,0,11.189,3.217,13.968,8.401l21.603,40.155c0.534,0.992,1.44,1.732,2.52,2.057   c1.079,0.323,2.243,0.207,3.236-0.328L132.858,212.455z M109.856,366.937H16.888v-13.083c0-3.171,2.58-5.75,5.75-5.75h81.468   c3.17,0,5.75,2.579,5.75,5.75V366.937z M109.856,375.437v54.5h-56.87c-2.347,0-4.25,1.902-4.25,4.25c0,2.348,1.903,4.25,4.25,4.25   h56.87v5.081c0,3.171-2.58,5.75-5.75,5.75H22.638c-3.17,0-5.75-2.579-5.75-5.75v-68.081H109.856z M168.085,410.708   c0,9.978-8.118,18.096-18.097,18.096c-0.544,0-1.079-0.034-1.61-0.081c0.531-0.71,0.857-1.582,0.857-2.536v-46   c0-2.348-1.903-4.25-4.25-4.25c-2.347,0-4.25,1.902-4.25,4.25v46c0,0.017,0.004,0.031,0.005,0.047   c-5.289-3.162-8.849-8.929-8.849-15.525v-64.28h36.193V410.708z M32.374,337.928c-8.447,0-14.466-2.488-18.4-7.608   c-4.605-5.991-5.657-14.617-5.459-22.16c0.46,0.171,0.952,0.277,1.472,0.277h53c2.347,0,4.25-1.902,4.25-4.25   c0-2.348-1.903-4.25-4.25-4.25h-53c-0.275,0-0.542,0.031-0.802,0.081c0.627-4.648,1.454-7.838,1.477-7.925   c0.04-0.15,0.072-0.301,0.095-0.454l15.375-99.699c3.938-19.023,18.569-32.821,34.823-32.821c16.327,0,30.985,13.842,34.848,32.892   l5.11,25.893l-18.715-34.786c-4.257-7.944-12.479-12.88-21.457-12.88c-3.965,0-7.921,0.998-11.441,2.885   c-5.733,3.071-9.937,8.194-11.837,14.425c-1.905,6.244-1.262,12.84,1.814,18.578l31.14,57.881   c4.257,7.943,12.479,12.877,21.457,12.877c3.965,0,7.922-0.997,11.443-2.884c0.011-0.006,0.022-0.013,0.034-0.019   c0.012-0.007,0.023-0.013,0.035-0.019l7.881-4.24c1.685,6.746,5.538,16.707,22.051,17.084c13.416,0.307,27.114,1.648,36.412,9.327   c3.097,2.557,5.679,5.828,7.778,9.805h-64.521c-2.347,0-4.25,1.902-4.25,4.25c0,2.348,1.903,4.25,4.25,4.25h65   c1.005,0,1.917-0.363,2.644-0.946c2.137,6.697,3.339,14.807,3.605,24.438H32.374z" fill="#FFFFFF"/>
</g>
<g>
</g>
<g>
</g>
<g>
</g>
<g>
</g>
<g>
</g>
<g>
</g>
<g>
</g>
<g>
</g>
<g>
</g>
<g>
</g>
<g>
</g>
<g>
</g>
<g>
</g>
<g>
</g>
<g>
</g>
</svg>
