<?xml version="1.0" encoding="iso-8859-1"?>
<!-- Generator: Adobe Illustrator 18.0.0, SVG Export Plug-In . SVG Version: 6.00 Build 0)  -->
<!DOCTYPE svg PUBLIC "-//W3C//DTD SVG 1.1//EN" "http://www.w3.org/Graphics/SVG/1.1/DTD/svg11.dtd">
<svg xmlns="http://www.w3.org/2000/svg" xmlns:xlink="http://www.w3.org/1999/xlink" version="1.1" id="Capa_1" x="0px" y="0px" viewBox="0 0 479.115 479.115" style="enable-background:new 0 0 479.115 479.115;" xml:space="preserve" width="512px" height="512px">
<g>
	<path d="M342.932,127.019c24.785,0,44.949-20.164,44.949-44.95c0-24.785-20.164-44.95-44.949-44.95   c-24.785,0-44.949,20.165-44.949,44.95C297.983,106.855,318.147,127.019,342.932,127.019z M342.932,45.62   c20.098,0,36.449,16.351,36.449,36.45c0,20.099-16.351,36.45-36.449,36.45c-20.098,0-36.449-16.352-36.449-36.45   C306.483,61.971,322.834,45.62,342.932,45.62z" fill="#FFFFFF"/>
	<path d="M377.392,300.797c-2.347,0-4.25,1.903-4.25,4.25v31.498c0,2.347,1.903,4.25,4.25,4.25s4.25-1.903,4.25-4.25v-31.498   C381.642,302.7,379.739,300.797,377.392,300.797z" fill="#FFFFFF"/>
	<path d="M444.937,264.058C445.404,264.058,444.516,264.197,444.937,264.058c3.534,2.067,7.493,3,11.456,3   c6.034,0,12.059-2.383,16.522-7.104c8.607-9.104,8.202-23.516-0.898-32.122l-14.16-13.425V16.562c0-7.857-6.392-14.25-14.25-14.25   H21c-7.857,0-14.25,6.393-14.25,14.25v233.362c0,7.857,6.393,14.25,14.25,14.25h262.119v10.998H14.25   c-7.857,0-14.25,6.393-14.25,14.25v10.124c0,7.857,6.393,14.25,14.25,14.25h268.87l0,135.396c0,15.224,12.386,27.61,27.611,27.61   s27.61-12.386,27.61-27.61l-0.001-114.618c3.157,0.293,6.029,0.293,9.184,0l0.001,114.617c0,15.224,12.386,27.61,27.611,27.61   c15.224,0,27.609-12.386,27.609-27.61l0-135.396h47.612c7.858,0,14.25-6.393,14.25-14.25v-10.124c0-7.857-6.392-14.25-14.25-14.25   h-47.612l0-10.998L444.937,264.058z M402.745,224.788l32.577,30.887h-32.577L402.745,224.788z M466.739,254.115   c-5.391,5.7-14.412,5.954-20.105,0.571l-43.889-41.611l0-37.852c0-0.446-0.037-0.887-0.059-1.329l63.487,60.111   C471.872,239.394,472.126,248.416,466.739,254.115z M15.25,249.924v-11.124h141.694c2.347,0,4.25-1.903,4.25-4.25   c0-2.347-1.903-4.25-4.25-4.25H15.25V16.562c0-3.17,2.58-5.75,5.75-5.75h422.607c3.171,0,5.75,2.58,5.75,5.75V29.31h-68.925   c-2.347,0-4.25,1.903-4.25,4.25c0,2.347,1.903,4.25,4.25,4.25h68.925v168.539l-59.124-56.043c-0.064-0.061,0.079,0.067,0,0   c-0.012-0.01,0.012,0.01,0,0c-12.694-11.794-32.554-19.353-47.301-19.353c-15.578,0-36.897,8.476-49.425,21.439   c-0.106,0.092,0.098-0.105,0,0l-45.863,49.038l-33.669-31.427c-9.106-8.609-23.518-8.204-32.124,0.902   c-4.17,4.411-6.373,10.183-6.203,16.25c0.17,6.068,2.693,11.707,7.128,15.898l50.512,47.026c3.124,2.924,6.874,4.771,10.795,5.594   H21C17.83,255.674,15.25,253.095,15.25,249.924z M283.119,175.702l0,41.953l-23.966,25.583c-5.369,5.677-14.366,5.962-20.065,0.628   l-50.497-47.012c-2.761-2.609-4.341-6.139-4.447-9.937c-0.106-3.798,1.272-7.411,3.883-10.173c5.387-5.7,14.408-5.953,20.128-0.546   l36.793,34.344c1.716,1.602,4.404,1.509,6.005-0.205L283.119,175.702z M253.523,255.674c4.375-0.924,8.525-3.127,11.82-6.611   l17.777-18.976l0,25.586H253.523z M14.25,305.297c-3.17,0-5.75-2.58-5.75-5.75v-10.124c0-3.17,2.58-5.75,5.75-5.75h268.869   l0,21.624H14.25z M381.642,467.138v-97.594c0-2.347-1.903-4.25-4.25-4.25s-4.25,1.903-4.25,4.25v98.654   c-9.604-1-17.117-9.141-17.117-19.004l-0.001-119.481c0-1.257-0.557-2.45-1.521-3.257c-0.771-0.647-1.739-0.993-2.729-0.993   c-0.247,0-0.496,0.022-0.743,0.065c-2.869,0.51-5.593,0.768-8.097,0.768s-5.229-0.259-8.1-0.769   c-1.239-0.221-2.51,0.12-3.473,0.927c-0.964,0.807-1.521,2-1.521,3.257l0.001,119.482c0,9.972-7.681,18.173-17.435,19.025v-50.851   c0-2.347-1.903-4.25-4.25-4.25c-2.347,0-4.25,1.903-4.25,4.25v49.654c-7.173-2.756-12.286-9.698-12.286-17.828l-0.001-273.971   c0-19.399,31.518-35.769,51.313-35.769c19.795,0,51.313,16.37,51.313,35.769l0.001,273.971   C394.246,457.443,388.981,464.468,381.642,467.138z M450.357,283.673c3.171,0,5.75,2.58,5.75,5.75v10.124   c0,3.17-2.579,5.75-5.75,5.75h-47.612l0-21.624H450.357z" fill="#FFFFFF"/>
	<path d="M59.822,93.617h188c2.347,0,4.25-1.903,4.25-4.25c0-2.347-1.903-4.25-4.25-4.25h-188c-2.347,0-4.25,1.903-4.25,4.25   C55.572,91.714,57.475,93.617,59.822,93.617z" fill="#FFFFFF"/>
	<path d="M252.072,129.867c0-2.347-1.903-4.25-4.25-4.25h-188c-2.347,0-4.25,1.903-4.25,4.25c0,2.347,1.903,4.25,4.25,4.25h188   C250.169,134.117,252.072,132.214,252.072,129.867z" fill="#FFFFFF"/>
	<path d="M139.822,166.117h-80c-2.347,0-4.25,1.903-4.25,4.25c0,2.347,1.903,4.25,4.25,4.25h80c2.347,0,4.25-1.903,4.25-4.25   C144.072,168.02,142.169,166.117,139.822,166.117z" fill="#FFFFFF"/>
</g>
<g>
</g>
<g>
</g>
<g>
</g>
<g>
</g>
<g>
</g>
<g>
</g>
<g>
</g>
<g>
</g>
<g>
</g>
<g>
</g>
<g>
</g>
<g>
</g>
<g>
</g>
<g>
</g>
<g>
</g>
</svg>
